<svg width="145" height="144" viewBox="0 0 145 144" fill="none" xmlns="http://www.w3.org/2000/svg">
<path fill-rule="evenodd" clip-rule="evenodd" d="M72.5 144C112.541 144 145 111.765 145 72C145 32.2355 112.541 0 72.5 0C32.4594 0 0 32.2355 0 72C0 111.765 32.4594 144 72.5 144ZM80.375 64.9497L86.1025 63.581V64.9497L98.5703 61.9703V82.9135L86.1025 79.9341V81.3028L80.375 79.9341V93.0454L88.9375 94.9854V123.75H94.665V94.9854L86.1025 93.0454V81.3028L98.5703 84.2822V82.9135L104.298 84.2822V60.6016L98.5703 61.9703V60.6016L86.1025 63.581V47.3138C86.3364 47.369 86.5679 47.4278 86.7969 47.4902C88.8037 47.9808 90.6322 48.6497 92.2822 49.4971C93.9769 50.2998 95.4932 51.214 96.8311 52.2397C98.2135 53.2655 99.4399 54.2689 100.51 55.25H106.238C105.167 54.2689 103.941 53.2655 102.559 52.2397C101.221 51.214 99.7044 50.2998 98.0098 49.4971C96.3597 48.6497 94.5312 47.9808 92.5244 47.4902C90.5622 46.9551 88.4216 46.6875 86.1025 46.6875V47.3138C84.3325 46.8963 82.4234 46.6875 80.375 46.6875V64.9497ZM34.7275 94.7178V123.75H29V94.7178L37.5625 93.0454V51.8384L29 50.166V21H34.7275V50.166L43.29 51.8384V93.0454L34.7275 94.7178ZM117.476 55.25H111.749V21H117.476V55.25Z" fill="url(#paint0_linear_724_46)"/>
<defs>
<linearGradient id="paint0_linear_724_46" x1="16" y1="51" x2="91.5" y2="102.5" gradientUnits="userSpaceOnUse">
<stop stop-color="white"/>
<stop offset="1" stop-color="#F3F3F3"/>
</linearGradient>
</defs>
</svg>
