<svg width="360" height="360" viewBox="0 0 360 360" fill="none" xmlns="http://www.w3.org/2000/svg">
<circle cx="180" cy="180" r="180" fill="#FBFBFB"/>
<path d="M67 68H293L272 299L180 325L87 298.5L67 68Z" fill="#126FAE"/>
<path d="M90 87H272L255.088 283.844L181 306L106.106 283.418L90 87Z" fill="url(#paint0_linear_727_12)"/>
<path d="M110 117H250L236.5 260L179 276.5L121 260L117.5 216H145L146.5 239.5L178.5 247.5L211.5 239.5L213 201H148L146.5 173.5H217L219 144H112L110 117Z" fill="url(#paint1_linear_727_12)"/>
<defs>
<linearGradient id="paint0_linear_727_12" x1="264.5" y1="172.5" x2="99" y2="172.5" gradientUnits="userSpaceOnUse">
<stop offset="0.50309" stop-color="#30A9DC"/>
<stop offset="0.50452" stop-color="#0C73B8"/>
</linearGradient>
<linearGradient id="paint1_linear_727_12" x1="250" y1="197" x2="110" y2="197" gradientUnits="userSpaceOnUse">
<stop offset="0.496611" stop-color="white"/>
<stop offset="0.514659" stop-color="#ECEDEE"/>
</linearGradient>
</defs>
</svg>
