<svg width="360" height="360" viewBox="0 0 360 360" fill="none" xmlns="http://www.w3.org/2000/svg">
<circle cx="180" cy="180" r="180" fill="#FBFBFB"/>
<path d="M67 68H293L272 299L180 325L87 298.5L67 68Z" fill="#E15026"/>
<path d="M90 87H272L255.088 283.844L181 306L106.106 283.418L90 87Z" fill="url(#paint0_linear_727_16)"/>
<path d="M110 116H252.001L250.001 145H142L144 173H248L240 261L181 277L123 261L119 215H148L150 238L181 246L212 238L215 202H118L110 116Z" fill="url(#paint1_linear_727_16)"/>
<defs>
<linearGradient id="paint0_linear_727_16" x1="264.5" y1="172.5" x2="99" y2="172.5" gradientUnits="userSpaceOnUse">
<stop offset="0.50309" stop-color="#F1672C"/>
<stop offset="0.50452" stop-color="#E55126"/>
</linearGradient>
<linearGradient id="paint1_linear_727_16" x1="118" y1="201.5" x2="245.5" y2="201" gradientUnits="userSpaceOnUse">
<stop offset="0.498294" stop-color="#ECEDEE"/>
<stop offset="0.5" stop-color="white"/>
</linearGradient>
</defs>
</svg>
