<svg width="360" height="360" viewBox="0 0 360 360" fill="none" xmlns="http://www.w3.org/2000/svg">
<circle cx="180" cy="180" r="180" fill="#FBFBFB"/>
<path d="M66 68H292L271 299L179 325L86 298.5L66 68Z" fill="#E5A228"/>
<path d="M89 87H271L254.088 283.844L180 306L105.106 283.418L89 87Z" fill="url(#paint0_linear_727_13)"/>
<path d="M125 109H236L242 168H214.5L213 138H149L146 183H242L234 269L177 285L119 269L115 225H143V248L177 256L209.5 248L212 210H116L125 109Z" fill="url(#paint1_linear_727_13)"/>
<defs>
<linearGradient id="paint0_linear_727_13" x1="263.5" y1="172.5" x2="98" y2="172.5" gradientUnits="userSpaceOnUse">
<stop offset="0.50309" stop-color="#F1BF26"/>
<stop offset="0.50452" stop-color="#E5A228"/>
</linearGradient>
<linearGradient id="paint1_linear_727_13" x1="239" y1="208" x2="115" y2="208.5" gradientUnits="userSpaceOnUse">
<stop offset="0.488664" stop-color="white"/>
<stop offset="0.505616" stop-color="#ECEDEE"/>
</linearGradient>
</defs>
</svg>
